PathFileType	4	(X/Y/Z)	TVC_32_Cal_03_0_static_RCNL2025.trc
DataRate	CameraRate	NumFrames	NumMarkers	Units	OrigDataRate	OrigDataStartFrame	OrigNumFrames
100	100	9	27	mm	100	1	197
Frame#	Time	R_Shoulder			L_Shoulder			C7			J_Notch			R_Elbow			L_Elbow			R_Wrist			L_Wrist			R_Asis			L_Asis			R_Psis			L_Psis			Sacral			Thoracic			Sternum			R_Thigh_Lateral			R_Knee_Lateral			R_Shank_Lateral			R_Ankle_Lateral			R_Heel			R_Toe			L_Thigh_Lateral			L_Knee_Lateral			L_Shank_Lateral			L_Ankle_Lateral			L_Heel			L_Toe		
		X1	Y1	Z1	X2	Y2	Z2	X3	Y3	Z3	X4	Y4	Z4	X5	Y5	Z5	X6	Y6	Z6	X7	Y7	Z7	X8	Y8	Z8	X9	Y9	Z9	X10	Y10	Z10	X11	Y11	Z11	X12	Y12	Z12	X13	Y13	Z13	X14	Y14	Z14	X15	Y15	Z15	X16	Y16	Z16	X17	Y17	Z17	X18	Y18	Z18	X19	Y19	Z19	X20	Y20	Z20	X21	Y21	Z21	X22	Y22	Z22	X23	Y23	Z23	X24	Y24	Z24	X25	Y25	Z25	X26	Y26	Z26	X27	Y27	Z27
1	0.00000000	-156.842331	1473.061401	-36.366245	-162.919556	1451.314941	-415.630188	-218.661285	1517.618286	-224.080734	-55.094681	1420.516602	-215.080338	-190.853271	1157.274902	133.884018	-172.954727	1117.462769	-513.631775	-112.702721	894.267334	101.771355	-86.340446	859.106018	-477.155777	-94.212700	1012.314514	-65.558067	-96.103867	1014.959229	-348.086334	-287.787628	1027.063477	-154.777740	-284.954803	1024.382202	-255.947510	-286.371216	1025.722839	-205.362625	-281.541595	1253.511597	-212.680374	-31.951820	1275.172363	-216.190811	-194.030548	638.540405	-2.134805	-178.160019	501.769012	-48.147141	-227.898483	302.875671	3.598104	-240.367920	82.242592	-60.961147	-293.864319	53.702991	-125.879967	-96.976768	41.604847	-55.865376	-162.467865	680.278015	-434.860229	-186.262527	503.120148	-398.220490	-205.516266	360.861298	-462.805664	-198.832474	76.509407	-425.217102	-265.553406	60.841579	-377.102417	-57.973774	40.848061	-404.410858
2	0.01000000	-156.932526	1473.119873	-36.433449	-162.885101	1451.272583	-415.595093	-218.719162	1517.655151	-224.126938	-55.208977	1420.537109	-215.586731	-190.898483	1157.319580	133.938782	-173.043442	1117.713379	-513.940552	-112.684406	894.327087	101.767563	-86.299290	859.083252	-477.223953	-94.150787	1012.354919	-65.529892	-96.147308	1014.894836	-348.011353	-287.785583	1027.061646	-154.746445	-284.953735	1024.381226	-255.917084	-286.369659	1025.721436	-205.331764	-281.540558	1253.492798	-212.648178	-31.999071	1275.133911	-216.109924	-194.389404	638.644226	-2.073949	-178.232529	501.780823	-48.169693	-227.840347	302.897980	3.600045	-240.332993	82.243332	-60.938381	-293.891937	53.731441	-125.845604	-96.988129	41.611088	-55.856079	-162.485596	680.302979	-434.806274	-186.267334	503.146027	-398.215424	-205.554092	360.909241	-462.847809	-198.845154	76.528053	-425.214630	-265.618896	60.842220	-377.033142	-57.979057	40.909199	-404.384918
3	0.02000000	-156.742493	1473.131104	-36.575268	-162.944748	1451.293213	-415.689026	-218.764389	1517.684814	-224.200790	-55.201199	1420.519287	-215.656601	-190.856903	1157.426147	133.886673	-172.945374	1117.747681	-514.036682	-112.633163	894.399658	101.707695	-86.209503	859.090179	-477.223236	-94.297333	1012.366089	-65.538879	-96.138672	1014.940796	-348.034058	-287.786469	1027.099976	-154.775711	-285.035675	1024.417603	-255.976318	-286.411072	1025.758789	-205.376015	-281.601105	1253.537109	-212.730377	-32.098721	1275.181519	-216.202316	-194.492905	638.561035	-2.246381	-178.255295	501.751312	-48.173222	-227.934219	303.343811	4.081765	-240.311905	82.299957	-60.925064	-293.893402	53.785610	-125.843697	-97.027924	41.642048	-55.890007	-162.458588	680.399414	-434.801788	-186.269180	503.204254	-398.296783	-205.529861	360.941223	-462.841858	-198.787170	76.572571	-425.209320	-265.669098	60.817265	-376.921112	-57.948071	40.904240	-404.430786
4	0.03000000	-156.743134	1473.202515	-36.617695	-162.934418	1451.280518	-415.715179	-218.732330	1517.626831	-224.241608	-55.259174	1420.501343	-215.252899	-190.968277	1157.472534	133.969543	-173.025986	1117.789429	-514.286743	-112.657646	894.499542	101.858868	-86.084579	859.122437	-477.291779	-94.234268	1012.378723	-65.635727	-96.187584	1014.957886	-347.978302	-287.788177	1027.121216	-154.779022	-285.047455	1024.458008	-255.981445	-286.417816	1025.789612	-205.380234	-281.562317	1253.491821	-212.752075	-32.089153	1275.120972	-216.223206	-194.285721	638.576233	-2.184345	-178.293640	501.801453	-48.165371	-227.871246	303.004272	3.719630	-240.461624	82.325142	-60.885033	-293.886780	53.805325	-125.849014	-96.999596	41.654232	-55.837643	-162.462921	680.285828	-434.898438	-186.229080	503.170319	-398.313782	-205.558029	360.893768	-462.889374	-198.816376	76.621536	-425.195312	-265.638428	60.768509	-377.100220	-57.965202	40.907951	-404.412384
5	0.04000000	-156.773346	1473.235107	-36.673355	-162.979523	1451.282959	-415.745758	-218.804733	1517.650757	-224.315170	-55.367805	1420.442261	-215.236877	-191.071167	1157.514648	133.928238	-172.844025	1117.773315	-514.064880	-112.374393	894.551025	101.417717	-86.030636	859.148651	-477.280106	-94.314102	1012.367493	-65.501251	-96.197586	1014.929260	-347.968689	-287.806641	1027.148682	-154.753403	-285.061584	1024.502563	-255.955002	-286.434113	1025.825623	-205.354202	-281.655365	1253.578735	-212.825897	-32.105202	1275.101929	-216.271698	-194.187103	638.604065	-2.022121	-178.300308	501.833771	-48.155682	-227.798874	302.920959	3.542168	-240.356750	82.217285	-60.954781	-293.851105	53.815079	-125.886490	-96.985207	41.618404	-55.851601	-162.434586	680.388733	-434.843414	-186.194183	503.171814	-398.289764	-205.502258	360.888306	-462.867859	-198.811081	76.562218	-425.249298	-265.564362	60.955692	-376.932129	-57.917850	40.893913	-404.358032
6	0.05000000	-156.954193	1473.443848	-36.501049	-162.867126	1451.232666	-415.741272	-218.853271	1517.657715	-224.389572	-55.405849	1420.366577	-215.156982	-191.100098	1157.564819	133.934479	-172.799911	1117.812256	-514.156982	-112.244446	894.622833	101.497005	-85.952015	859.197784	-477.360825	-94.326271	1012.350098	-65.492180	-96.185654	1014.976624	-348.010468	-287.873108	1027.161743	-154.804672	-285.043488	1024.529785	-255.947113	-286.458298	1025.845764	-205.375893	-281.629272	1253.540039	-212.839737	-32.248184	1274.936768	-215.943939	-194.173981	638.498779	-2.140015	-178.228287	501.818298	-48.185261	-227.922134	303.329834	4.013268	-240.264359	82.375114	-60.987358	-293.830780	53.779484	-125.913765	-96.922287	41.734020	-55.808300	-162.417984	680.359436	-434.932617	-186.192719	503.190399	-398.292847	-205.544357	360.979279	-462.871765	-198.752350	76.644028	-425.232666	-265.617981	60.887619	-376.988098	-57.950127	40.932930	-404.409698
7	0.06000000	-156.919510	1473.422119	-36.659805	-162.907333	1451.264404	-415.782166	-218.791962	1517.698486	-224.426483	-55.436558	1420.333496	-215.073761	-191.064911	1157.635864	133.913712	-172.887054	1117.642090	-514.138062	-112.317253	894.681580	101.596962	-85.925896	859.227051	-477.416458	-94.347534	1012.372742	-65.489113	-96.191986	1014.981873	-347.974091	-287.873322	1027.144653	-154.809891	-285.104614	1024.541504	-256.031769	-286.488968	1025.843079	-205.420830	-281.636871	1253.541016	-212.842285	-32.189541	1274.934692	-216.180939	-194.368118	638.325073	-2.316246	-178.210709	501.780182	-48.227234	-227.895493	303.051819	3.590129	-240.267700	82.391602	-60.961933	-293.807281	53.853642	-125.908157	-96.918724	41.731537	-55.804493	-162.399521	680.353149	-434.940002	-186.210648	503.233582	-398.281799	-205.436691	360.884521	-462.919434	-198.799500	76.596077	-425.227295	-265.482086	60.960217	-377.086487	-57.922665	40.940094	-404.367981
8	0.07000000	-157.096512	1473.471558	-36.528584	-162.864944	1451.262695	-415.840210	-218.841522	1517.681763	-224.396698	-55.409233	1420.392944	-215.293854	-191.093353	1157.716675	133.933044	-172.903198	1117.757935	-514.503723	-112.239613	894.745148	101.591835	-85.899185	859.226196	-477.469620	-94.368439	1012.414978	-65.486328	-96.193085	1014.938477	-347.985321	-287.849609	1027.133911	-154.864304	-285.025696	1024.445679	-256.161163	-286.437653	1025.789795	-205.512733	-281.654327	1253.578857	-212.830276	-32.236553	1275.087646	-216.279099	-194.190811	638.687866	-2.150773	-178.255310	501.841644	-48.206940	-227.971863	303.285248	3.966810	-240.229889	82.446785	-60.997829	-293.805511	53.828873	-125.912880	-96.933205	41.722668	-55.800976	-162.393936	680.383545	-434.901031	-186.214005	503.228394	-398.378571	-205.484573	360.898743	-462.873291	-198.787033	76.597702	-425.249786	-265.533600	60.959652	-377.008514	-57.971851	40.943668	-404.453613
9	0.08000000	-157.109909	1473.537964	-36.614994	-162.881317	1451.279053	-415.841827	-218.835541	1517.689331	-224.472977	-55.394142	1420.361816	-215.246811	-191.131927	1157.733276	133.973648	-172.823318	1117.769287	-514.370361	-112.244640	894.769012	101.620609	-85.986736	859.158722	-477.543793	-94.403168	1012.413635	-65.634811	-96.193138	1014.928772	-347.977478	-287.841675	1027.112549	-154.840942	-285.049500	1024.491455	-256.129913	-286.445587	1025.802002	-205.485428	-281.699188	1253.571533	-212.896713	-32.249611	1275.077759	-216.274628	-194.074860	638.710144	-2.068710	-178.265656	501.836517	-48.195862	-227.961426	302.984406	3.585876	-240.369049	82.412018	-60.984192	-293.832794	53.845146	-125.879532	-96.943832	41.758938	-55.779068	-162.319031	680.344482	-434.935638	-186.189865	503.212677	-398.360718	-205.461349	360.947327	-462.926636	-198.792770	76.614532	-425.204285	-265.502716	60.956444	-377.145660	-57.906399	40.943779	-404.447021
